<svg width="16.000000" height="21.000000" viewBox="0 0 16 21" fill="none" xmlns="http://www.w3.org/2000/svg" xmlns:xlink="http://www.w3.org/1999/xlink">
	<desc>
			Created with Pixso.
	</desc>
	<defs/>
	<path id="Vector" d="M16 7L13 7L13 5.21C13 2.6 11.09 0.27 8.48 0.02C5.51 -0.27 3 2.08 3 5L3 7L0 7L0 21L16 21L16 7ZM8 16C6.89 16 6 15.1 6 14C6 12.9 6.89 12 8 12C9.1 12 10 12.9 10 14C10 15.1 9.1 16 8 16ZM5 7L5 5C5 3.34 6.34 2 8 2C9.65 2 11 3.34 11 5L11 7L5 7Z" fill="#79808F" fill-opacity="1.000000" fill-rule="nonzero"/>
</svg>
