<svg width="15.000000" height="16.000000" viewBox="0 0 15 16" fill="none" xmlns="http://www.w3.org/2000/svg" xmlns:xlink="http://www.w3.org/1999/xlink">
	<desc>
			Created with Pixso.
	</desc>
	<defs/>
	<path id="Vector" d="M12.65 2.34C11.2 0.9 9.2 0 7 0C2.57 0 -0.99 3.58 -0.99 8C-0.99 12.42 2.57 16 7 16C10.73 16 13.84 13.45 14.73 10L12.65 10C11.83 12.33 9.6 14 7 14C3.69 14 1 11.31 1 8C1 4.69 3.69 2 7 2C8.66 2 10.14 2.69 11.22 3.78L8 7L15 7L15 0L12.65 2.34Z" fill="#007AFF" fill-opacity="1.000000" fill-rule="nonzero"/>
</svg>
