<svg width="22.000000" height="22.000000" viewBox="0 0 22 22" fill="none" xmlns="http://www.w3.org/2000/svg" xmlns:xlink="http://www.w3.org/1999/xlink">
	<desc>
			Created with Pixso.
	</desc>
	<defs>
		<linearGradient id="paint_linear_1_59_0" x1="15.649778" y1="0.000002" x2="10.792969" y2="22.000002" gradientUnits="userSpaceOnUse">
			<stop stop-color="#9ECBFF"/>
			<stop offset="0.411458" stop-color="#6FA0FF"/>
			<stop offset="1.000000" stop-color="#AF93FF"/>
		</linearGradient>
	</defs>
	<path id="Vector" d="M4 11C4 7.13 7.13 4 11 4C13.79 4 16.2 5.63 17.32 8L20 8L21.58 8C20.28 3.38 16.03 0 11 0C4.92 0 0 4.92 0 11C0 17.07 4.92 22 11 22C16.03 22 20.28 18.61 21.58 14L20 14L17.32 14C16.2 16.36 13.79 18 11 18C7.13 18 4 14.86 4 11Z" fill="url(#paint_linear_1_59_0)" fill-opacity="1.000000" fill-rule="evenodd"/>
</svg>
